<mxfile host="app.diagrams.net" modified="2023-09-27T18:13:10.382Z" agent="Mozilla/5.0 (X11; Linux x86_64; rv:109.0) Gecko/20100101 Firefox/114.0" etag="o7BqiW2WPBzx08zTD3zy" version="21.8.2" type="github">
  <diagram name="Página-1" id="uu6qwO1reLOgQa7a6rLV">
    <mxGraphModel dx="1434" dy="795" grid="1" gridSize="10" guides="1" tooltips="1" connect="1" arrows="1" fold="1" page="1" pageScale="1" pageWidth="827" pageHeight="1169" math="0" shadow="0">
      <root>
        <mxCell id="0" />
        <mxCell id="1" parent="0" />
        <mxCell id="lQouTxrTDhcw6CGdxIQ0-14" style="edgeStyle=orthogonalEdgeStyle;rounded=0;orthogonalLoop=1;jettySize=auto;html=1;endArrow=none;endFill=0;" edge="1" parent="1" source="lQouTxrTDhcw6CGdxIQ0-1" target="lQouTxrTDhcw6CGdxIQ0-6">
          <mxGeometry relative="1" as="geometry" />
        </mxCell>
        <mxCell id="lQouTxrTDhcw6CGdxIQ0-1" value="fábrica" style="rounded=1;arcSize=10;whiteSpace=wrap;html=1;align=center;fillColor=#dae8fc;strokeColor=#6c8ebf;" vertex="1" parent="1">
          <mxGeometry x="670" y="430" width="120" height="50" as="geometry" />
        </mxCell>
        <mxCell id="lQouTxrTDhcw6CGdxIQ0-13" style="edgeStyle=orthogonalEdgeStyle;rounded=0;orthogonalLoop=1;jettySize=auto;html=1;exitX=1;exitY=0.5;exitDx=0;exitDy=0;entryX=0;entryY=0.5;entryDx=0;entryDy=0;endArrow=none;endFill=0;" edge="1" parent="1" source="lQouTxrTDhcw6CGdxIQ0-2" target="lQouTxrTDhcw6CGdxIQ0-6">
          <mxGeometry relative="1" as="geometry" />
        </mxCell>
        <mxCell id="lQouTxrTDhcw6CGdxIQ0-2" value="artículo" style="rounded=1;arcSize=10;whiteSpace=wrap;html=1;align=center;fillColor=#dae8fc;strokeColor=#6c8ebf;" vertex="1" parent="1">
          <mxGeometry x="320" y="430" width="120" height="50" as="geometry" />
        </mxCell>
        <mxCell id="lQouTxrTDhcw6CGdxIQ0-11" style="edgeStyle=orthogonalEdgeStyle;rounded=0;orthogonalLoop=1;jettySize=auto;html=1;entryX=0.5;entryY=0;entryDx=0;entryDy=0;endArrow=none;endFill=0;" edge="1" parent="1" source="lQouTxrTDhcw6CGdxIQ0-3" target="lQouTxrTDhcw6CGdxIQ0-4">
          <mxGeometry relative="1" as="geometry" />
        </mxCell>
        <mxCell id="lQouTxrTDhcw6CGdxIQ0-3" value="cliente" style="rounded=1;arcSize=10;whiteSpace=wrap;html=1;align=center;fillColor=#dae8fc;strokeColor=#6c8ebf;" vertex="1" parent="1">
          <mxGeometry x="320" y="190" width="120" height="50" as="geometry" />
        </mxCell>
        <mxCell id="lQouTxrTDhcw6CGdxIQ0-12" style="edgeStyle=orthogonalEdgeStyle;rounded=0;orthogonalLoop=1;jettySize=auto;html=1;exitX=0.5;exitY=1;exitDx=0;exitDy=0;entryX=0.5;entryY=0;entryDx=0;entryDy=0;endArrow=none;endFill=0;" edge="1" parent="1" source="lQouTxrTDhcw6CGdxIQ0-4" target="lQouTxrTDhcw6CGdxIQ0-2">
          <mxGeometry relative="1" as="geometry" />
        </mxCell>
        <mxCell id="lQouTxrTDhcw6CGdxIQ0-4" value="pide" style="shape=rhombus;perimeter=rhombusPerimeter;whiteSpace=wrap;html=1;align=center;fillColor=#d5e8d4;strokeColor=#82b366;" vertex="1" parent="1">
          <mxGeometry x="340" y="320" width="80" height="50" as="geometry" />
        </mxCell>
        <mxCell id="lQouTxrTDhcw6CGdxIQ0-6" value="distribuido" style="shape=rhombus;perimeter=rhombusPerimeter;whiteSpace=wrap;html=1;align=center;fillColor=#d5e8d4;strokeColor=#82b366;" vertex="1" parent="1">
          <mxGeometry x="514" y="428" width="90" height="55" as="geometry" />
        </mxCell>
      </root>
    </mxGraphModel>
  </diagram>
</mxfile>
